<svg width="43" height="43" viewBox="0 0 43 43" fill="none" xmlns="http://www.w3.org/2000/svg">
<path d="M20.7386 1.57913L21.4865 3.68076C21.5979 3.99395 21.7739 4.28027 22.0029 4.52123C22.2319 4.76219 22.509 4.95242 22.8161 5.07963C23.1232 5.20684 23.4537 5.26821 23.786 5.25977C24.1183 5.25132 24.4452 5.17325 24.7455 5.03061L26.7606 4.07344C28.7795 3.11369 30.8863 5.22049 29.9266 7.23945L28.9694 9.25453C28.8263 9.55475 28.7479 9.88167 28.7393 10.2141C28.7306 10.5466 28.7919 10.8771 28.9192 11.1844C29.0465 11.4916 29.2368 11.7687 29.478 11.9977C29.7192 12.2267 30.0058 12.4024 30.3192 12.5135L32.4209 13.2602C34.5264 14.0094 34.5264 16.9881 32.4209 17.7386L30.3192 18.4865C30.0061 18.5979 29.7197 18.7739 29.4788 19.0029C29.2378 19.2319 29.0476 19.509 28.9204 19.8161C28.7932 20.1232 28.7318 20.4537 28.7402 20.786C28.7487 21.1183 28.8267 21.4452 28.9694 21.7455L29.9266 23.7606C30.8863 25.7795 28.7795 27.8863 26.7606 26.9266L24.7455 25.9694C24.4453 25.8265 24.1185 25.7482 23.7862 25.7396C23.4538 25.731 23.1234 25.7922 22.8162 25.9193C22.509 26.0464 22.232 26.2366 22.0029 26.4775C21.7738 26.7184 21.5979 27.0047 21.4865 27.318L20.7386 29.4209C19.9894 31.5264 17.0106 31.5264 16.2614 29.4209L15.5135 27.318C15.4019 27.0049 15.2259 26.7187 14.9968 26.4779C14.7677 26.237 14.4907 26.047 14.1835 25.9199C13.8764 25.7928 13.5461 25.7315 13.2138 25.7401C12.8815 25.7486 12.5547 25.8267 12.2545 25.9694L10.2394 26.9253C8.22049 27.8863 6.11369 25.7795 7.07344 23.7606L8.03061 21.7455C8.17369 21.4451 8.25211 21.118 8.26078 20.7853C8.26945 20.4527 8.20818 20.122 8.08094 19.8145C7.9537 19.5071 7.76332 19.2298 7.52212 19.0005C7.28092 18.7713 6.99429 18.5953 6.68076 18.4839L4.57913 17.7373C2.47362 16.9881 2.47362 14.0081 4.57913 13.2589L6.68076 12.5123C6.99429 12.4012 7.28102 12.2255 7.5224 11.9967C7.76378 11.7678 7.95443 11.4908 8.08202 11.1836C8.20962 10.8765 8.27132 10.5459 8.26313 10.2134C8.25494 9.88087 8.17704 9.55377 8.03448 9.25324L7.07602 7.23816C6.11628 5.21791 8.22307 3.11111 10.2433 4.07086L12.2584 5.02931C12.5585 5.17177 12.8852 5.24972 13.2173 5.25814C13.5495 5.26656 13.8797 5.20525 14.1866 5.07818C14.4936 4.95111 14.7705 4.7611 14.9995 4.5204C15.2285 4.2797 15.4045 3.99367 15.5161 3.68076L16.2627 1.57913C17.0094 -0.526376 19.9881 -0.526376 20.7373 1.57913H20.7386Z" fill="#FF884D"/>
</svg>
